<svg xmlns="http://www.w3.org/2000/svg" width="20" height="14" viewBox="0 0 20 14">
  <path id="Path_66" data-name="Path 66" d="M620.706,785.293a1,1,0,0,1,0,1.414l-2,2a1,1,0,0,1-1.414,0l-2-2a1,1,0,0,1,1.414-1.414l.293.293V782a1,1,0,0,1,2,0v3.586l.293-.293A1,1,0,0,1,620.706,785.293ZM622.5,778a5.411,5.411,0,0,0-1.6.239A7,7,0,0,0,608,782a7.778,7.778,0,0,0,2.336,5.48,5.346,5.346,0,0,0,2.415,1.319,1,1,0,0,0,.5-1.938,3.356,3.356,0,0,1-1.524-.82A5.737,5.737,0,0,1,610,782a5,5,0,0,1,9.539-2.086,1,1,0,0,0,1.369.475A3.439,3.439,0,0,1,622.5,780a3.5,3.5,0,0,1,3.5,3.5,3.625,3.625,0,0,1-3.169,3.425,1,1,0,0,0,.168,1.985.982.982,0,0,0,.17-.014A5.614,5.614,0,0,0,628,783.5,5.506,5.506,0,0,0,622.5,778Z" transform="translate(-608 -775)" fill="#fcfcfd"/>
</svg>
