<svg xmlns="http://www.w3.org/2000/svg" width="170" height="33.996" viewBox="0 0 170 33.996">
  <g id="Group_81" data-name="Group 81" transform="translate(-1875.781 -1361.733)">
    <path id="Path_1" data-name="Path 1" d="M1878.367,1425.382a2.586,2.586,0,0,1-2.586-2.586v-7.757a7.744,7.744,0,0,1,7.784-7.784,7.911,7.911,0,0,1,5.206,1.976,7.449,7.449,0,0,1,5.172-1.976,7.744,7.744,0,0,1,7.784,7.784v7.757a2.586,2.586,0,0,1-2.585,2.586h0a2.586,2.586,0,0,1-2.586-2.586v-7.7a2.681,2.681,0,0,0-.765-1.9,2.593,2.593,0,0,0-3.675,0,2.679,2.679,0,0,0-.767,1.9v7.707a2.586,2.586,0,0,1-2.586,2.586h0a2.586,2.586,0,0,1-2.586-2.586v-7.757a2.625,2.625,0,0,0-2.613-2.612,2.6,2.6,0,0,0-1.868.787,2.514,2.514,0,0,0-.743,1.825v7.757a2.586,2.586,0,0,1-2.586,2.586Z" transform="translate(0 -35.939)" fill="#23262f"/>
    <path id="Path_2" data-name="Path 2" d="M2017.34,1415.548a8.759,8.759,0,0,1,1.194-4.467,8.92,8.92,0,0,1,7.758-4.468,8.707,8.707,0,0,1,3.454.7,8.808,8.808,0,0,1,4.768,4.751,8.72,8.72,0,0,1,.713,3.479v8.244a2.586,2.586,0,0,1-2.586,2.586h0a2.586,2.586,0,0,1-2.586-2.586v-.117c-.034.011-.083.032-.146.06s-.112.049-.146.06a8.235,8.235,0,0,1-3.471.687,8.922,8.922,0,0,1-8.952-8.935Zm5.172,0a3.613,3.613,0,0,0,1.108,2.663,3.767,3.767,0,0,0,6.435-2.663,3.571,3.571,0,0,0-1.1-2.646,3.817,3.817,0,0,0-5.335.009A3.566,3.566,0,0,0,2022.512,1415.548Z" transform="translate(-111.229 -35.435)" fill="#23262f"/>
    <path id="Path_3" data-name="Path 3" d="M2121.289,1412.435a9.278,9.278,0,0,1,1.271-4.734,9.517,9.517,0,0,1,3.463-3.479,9.4,9.4,0,0,1,9.983.3,9.722,9.722,0,0,1,3.548,4.218,9.588,9.588,0,0,1,.738,3.694v8.127a7.907,7.907,0,0,1-.669,3.188,9.716,9.716,0,0,1-1.787,2.654,7.207,7.207,0,0,1-2.118,1.6,2.619,2.619,0,0,1-3.758-2.371h0a2.67,2.67,0,0,1,1.434-2.34,3.572,3.572,0,0,0,1.3-1.219,3.091,3.091,0,0,0,.391-1.165q-.55.275-.6.292a9.554,9.554,0,0,1-7.388-.009,9.3,9.3,0,0,1-5.052-5.035A9.329,9.329,0,0,1,2121.289,1412.435Zm5.172,0a4.33,4.33,0,0,0,8.659,0,4.124,4.124,0,0,0-1.271-3.033,4.335,4.335,0,0,0-6.117,0A4.121,4.121,0,0,0,2126.461,1412.435Z" transform="translate(-192.906 -32.544)" fill="#23262f"/>
    <rect id="Rectangle_385" data-name="Rectangle 385" width="5.223" height="18.901" rx="2.612" transform="translate(1951.771 1370.542)" fill="#23262f"/>
    <path id="Path_4" data-name="Path 4" d="M2275.213,1416.309a3.9,3.9,0,0,1,.034-.6,4.536,4.536,0,0,1,.052-.576q.052-.369.07-.455a9.2,9.2,0,0,1,3.007-5.241,8.637,8.637,0,0,1,5.583-2.182h.6a6.931,6.931,0,0,1,1.168.1,8.4,8.4,0,0,1,4.725,2.285q.2.192.389.394a2.537,2.537,0,0,1-1.86,4.263h-.172a2.566,2.566,0,0,1-1.8-.771,3.905,3.905,0,0,0-.78-.595,3.664,3.664,0,0,0-1.881-.507h-.052a3.744,3.744,0,0,0-2.749,1.134,3.63,3.63,0,0,0-1.151,2.749,3.915,3.915,0,0,0,3.918,3.9,3.892,3.892,0,0,0,1.2-.181,4.522,4.522,0,0,0,1.564-.991,2.543,2.543,0,0,1,1.783-.735h.115a2.538,2.538,0,0,1,1.922,4.192,6.449,6.449,0,0,1-.533.558,8.466,8.466,0,0,1-4.743,2.225l-.825.1h-.773q-.946-.086-.979-.1a6.619,6.619,0,0,1-1.374-.292,8.836,8.836,0,0,1-4.409-2.938,9.747,9.747,0,0,1-2.017-4.966c0-.08-.005-.206-.017-.378S2275.213,1416.4,2275.213,1416.309Z" transform="translate(-313.85 -35.939)" fill="#23262f"/>
    <path id="Path_5" data-name="Path 5" d="M2379.4,1416.344a8.951,8.951,0,0,1,.713-3.523,8.884,8.884,0,0,1,4.82-4.845,8.934,8.934,0,0,1,3.556-.722,8.777,8.777,0,0,1,4.975,1.495,9.184,9.184,0,0,1,3.359,4.038,8.731,8.731,0,0,1,.7,3.557,8.867,8.867,0,0,1-1.2,4.519,8.973,8.973,0,0,1-3.282,3.3,8.833,8.833,0,0,1-4.554,1.22,9.029,9.029,0,0,1-4.562-1.194,8.961,8.961,0,0,1-4.527-7.844Zm5.171,0a3.7,3.7,0,0,0,1.151,2.724,3.784,3.784,0,0,0,2.766,1.142,3.872,3.872,0,0,0,3.867-3.866,3.8,3.8,0,0,0-1.134-2.766,3.7,3.7,0,0,0-2.732-1.151,3.931,3.931,0,0,0-3.917,3.917Z" transform="translate(-395.716 -35.939)" fill="#23262f"/>
    <path id="Path_6" data-name="Path 6" d="M2484.432,1416.344a8.951,8.951,0,0,1,.713-3.523,8.885,8.885,0,0,1,4.82-4.845,8.934,8.934,0,0,1,3.557-.722,8.776,8.776,0,0,1,4.974,1.495,9.179,9.179,0,0,1,3.359,4.038,8.727,8.727,0,0,1,.7,3.557,8.862,8.862,0,0,1-1.2,4.519,8.975,8.975,0,0,1-3.282,3.3,8.832,8.832,0,0,1-4.553,1.22,9.032,9.032,0,0,1-4.562-1.194,8.963,8.963,0,0,1-4.527-7.844Zm5.172,0a3.7,3.7,0,0,0,1.151,2.724,3.783,3.783,0,0,0,2.766,1.142,3.873,3.873,0,0,0,3.866-3.866,3.8,3.8,0,0,0-1.135-2.766,3.7,3.7,0,0,0-2.731-1.151,3.931,3.931,0,0,0-3.918,3.917Z" transform="translate(-478.243 -35.939)" fill="#23262f"/>
    <path id="Path_7" data-name="Path 7" d="M2592.089,1425.382a2.586,2.586,0,0,1-2.586-2.586v-6.984a8.406,8.406,0,0,1,1.134-4.27,8.5,8.5,0,0,1,3.1-3.127,8.562,8.562,0,0,1,8.592-.009,8.512,8.512,0,0,1,3.11,3.119,8.388,8.388,0,0,1,1.143,4.287v6.984a2.586,2.586,0,0,1-2.586,2.586h0a2.586,2.586,0,0,1-2.586-2.586v-7.019a3.366,3.366,0,0,0-1.014-2.363,3.189,3.189,0,0,0-2.519-.983,3.422,3.422,0,0,0-3.2,3.346v7.019a2.587,2.587,0,0,1-2.586,2.586Z" transform="translate(-560.801 -35.939)" fill="#23262f"/>
    <path id="Path_8" data-name="Path 8" d="M2234.164,1363.951l-1.227-.671a.645.645,0,0,1-.256-.255l-.671-1.227a.642.642,0,0,0-1.127,0l-.671,1.227a.65.65,0,0,1-.256.255l-1.227.671a.643.643,0,0,0,0,1.128l1.227.671a.649.649,0,0,1,.256.255l.671,1.227a.642.642,0,0,0,1.127,0l.671-1.227a.644.644,0,0,1,.256-.255l1.227-.671A.643.643,0,0,0,2234.164,1363.951Z" transform="translate(-277.063 0.27)" fill="#3772ff"/>
  </g>
</svg>
