<svg id="ai_logo" xmlns="http://www.w3.org/2000/svg" width="26.998" height="23" viewBox="0 0 26.998 23">
  <path id="Path_39" data-name="Path 39" d="M455.8,75.814h-7.534l-1.539,4.762a.354.354,0,0,1-.385.284h-3.807c-.223,0-.283-.122-.223-.365l6.521-18.786c.061-.2.121-.426.2-.669a7.087,7.087,0,0,0,.121-1.317.2.2,0,0,1,.162-.223h5.245c.162,0,.243.061.263.162l7.392,20.873c.061.223,0,.324-.2.324h-4.233a.306.306,0,0,1-.324-.223L455.8,75.814ZM449.441,71.7h5.144c-.122-.426-.284-.932-.466-1.459-.182-.547-.365-1.135-.547-1.743-.2-.628-.385-1.236-.587-1.864s-.385-1.216-.547-1.8c-.162-.567-.3-1.094-.446-1.581h-.04a24.881,24.881,0,0,1-.689,2.614c-.3.973-.608,1.986-.932,3C450.049,69.9,449.745,70.849,449.441,71.7Z" transform="translate(-442.29 -57.961)" fill="#f77622"/>
  <path id="Path_40" data-name="Path 40" d="M553.186,56.986a2.506,2.506,0,0,1-1.8-.709,2.633,2.633,0,0,1-.689-1.864,2.384,2.384,0,0,1,.729-1.8,2.592,2.592,0,0,1,1.8-.709,2.424,2.424,0,0,1,1.843.709,2.787,2.787,0,0,1-.041,3.668,2.38,2.38,0,0,1-1.843.709Zm-2.268,17.589v-15.6c0-.2.081-.284.263-.284h4.01c.182,0,.263.1.263.284v15.6c0,.223-.081.324-.263.324h-3.969A.283.283,0,0,1,550.918,74.576Z" transform="translate(-528.741 -51.9)" fill="#f77622"/>
</svg>
