<svg xmlns="http://www.w3.org/2000/svg" width="24" height="22.055" viewBox="0 0 24 22.055">
  <g id="download-Filled" transform="translate(-53.333 -64.426)">
    <path id="download-Filled-2" data-name="download-Filled" d="M71.649,73.849H70.487l-2.905,2.905a3.126,3.126,0,0,1-4.459,0l-2.905-2.905h-1.2a5.685,5.685,0,0,0-5.684,5.684V80.8a5.677,5.677,0,0,0,5.684,5.684H71.649A5.685,5.685,0,0,0,77.333,80.8V79.533A5.693,5.693,0,0,0,71.649,73.849Zm0,7.263a1.579,1.579,0,1,1,1.566-1.579A1.579,1.579,0,0,1,71.649,81.112ZM60.672,71.626a1.259,1.259,0,1,1,1.781-1.781l1.63,1.63V65.689a1.263,1.263,0,1,1,2.526,0v5.785l1.642-1.63a1.259,1.259,0,1,1,1.781,1.781l-2.223,2.223-1.566,1.566a1.236,1.236,0,0,1-1.781,0Z" transform="translate(0 0)" fill="#fcfcfd"/>
  </g>
</svg>
