<svg xmlns="http://www.w3.org/2000/svg" xmlns:xlink="http://www.w3.org/1999/xlink" width="27.524" height="28" viewBox="0 0 27.524 28">
  <defs>
    <linearGradient id="linear-gradient" x1="-0.026" y1="0.5" x2="0.947" y2="0.5" gradientUnits="objectBoundingBox">
      <stop offset="0" stop-color="#b3b3b3"/>
      <stop offset="1" stop-color="#f2f2f2"/>
    </linearGradient>
  </defs>
  <g id="eps_logo" transform="translate(-184.32 -197.79)">
    <path id="Path_28" data-name="Path 28" d="M292.566,205.742l.288.287h-.275v.192l-.287-.286-.288-.287-.48-.478,0,0-.6-.6a0,0,0,0,1,0,0,0,0,0,0,1,0,0,0,0,0,0,1,0,0L285.53,199.2h-1.19V197.79h1.408v1.159l6.528,6.5Z" transform="translate(-89.712 0)" fill="#999"/>
    <path id="Path_29" data-name="Path 29" d="M379.285,290.506v1.408h-1.408v-1.187l-5.179-5.159-.611-.609-.524-.522-.275-.274-.288-.287h.19V283.6l.287.286.274.273,6.371,6.348Z" transform="translate(-167.441 -76.967)" fill="#999"/>
    <path id="Path_30" data-name="Path 30" d="M216.514,269.858c-.056.1-.111.19-.161.274-.065.108-.124.2-.177.287h-.692v.006l-.274-.27-.287-.283-16.292-16.048-.274-.27-.287-.282v-.719c.084-.059.179-.125.287-.2.084-.057.175-.118.274-.18,2.513-1.633,9.421-5.288,15.464-.866l0,0q.241.177.48.37c.1.078.193.158.288.241s.192.167.287.254V253h.834c.087.1.173.191.256.287s.157.181.232.274q.215.258.409.522C221.364,260.147,218,267.292,216.514,269.858Z" transform="translate(-12.34 -46.038)" fill="url(#linear-gradient)"/>
    <path id="Path_31" data-name="Path 31" d="M214.147,250.909h-.233v.241c-.1-.089-.192-.176-.287-.261s-.192-.165-.288-.244c-6.131-5.074-13.457-1.142-15.947.474q-.149.1-.274.181c-.11.075-.206.14-.287.2v-.316h-.141c.118-.082.26-.18.425-.288.086-.057.178-.117.277-.179,2.529-1.6,9.014-4.915,14.856-1.274a0,0,0,0,0,0,0,0,0,0,0,0,0,0,0,0,0,0,0,0,0,11.993,11.993,0,0,1,1.239.89q.171.14.34.288C213.937,250.715,214.042,250.811,214.147,250.909Z" transform="translate(-11.102 -44.858)" fill="#666"/>
    <path id="Path_32" data-name="Path 32" d="M371.5,301.08c-.055.1-.108.189-.158.274-.087.148-.165.277-.234.385v-.1h-.337c.051-.081.111-.177.177-.287.05-.083.1-.174.162-.274,1.479-2.549,5.1-10.156-.069-16.292-.076-.092-.155-.182-.237-.274s-.173-.192-.263-.287h.237v-.237c.1.1.194.208.287.313s.185.211.274.318a12.24,12.24,0,0,1,.947,1.3C376.01,291.8,372.954,298.51,371.5,301.08Z" transform="translate(-167.049 -77.26)" fill="#666"/>
    <path id="Path_33" data-name="Path 33" d="M361.91,275.36v1.409h1.408V275.36Zm1.121,1.121H362.2v-.834h.835Z" transform="translate(-159.314 -69.587)" fill="#fcfcfd"/>
    <path id="Path_34" data-name="Path 34" d="M359.1,272.55v1.97h1.97v-1.97Zm1.41,1.41h-.834v-.834h.834Z" transform="translate(-156.791 -67.066)" fill="gray"/>
    <path id="Path_35" data-name="Path 35" d="M187.13,278.02v1.41h1.408v-1.41Zm1.121,1.121h-.834v-.833h.834Z" transform="translate(-2.522 -71.973)" fill="#fcfcfd"/>
    <path id="Path_36" data-name="Path 36" d="M184.32,275.36v1.97h1.97v-1.97Zm1.41.561v.833H184.9v-.833Z" transform="translate(0 -69.586)" fill="gray"/>
    <path id="Path_37" data-name="Path 37" d="M365.27,453.37v1.409h1.41V453.37Zm1.107,1.122h-.833v-.834h.833Z" transform="translate(-162.328 -229.277)" fill="#fcfcfd"/>
    <path id="Path_38" data-name="Path 38" d="M362.47,450.7v1.97h1.97V450.7Zm.561.561h.833v.834h-.833Z" transform="translate(-159.815 -226.88)" fill="gray"/>
  </g>
</svg>
