<svg xmlns="http://www.w3.org/2000/svg" width="24" height="24.001" viewBox="0 0 24 24.001">
  <path id="Path_3128" data-name="Path 3128" d="M2251.08,1371.247l-4.824-2.639a2.527,2.527,0,0,1-1.005-1l-2.639-4.825a2.526,2.526,0,0,0-4.434,0l-2.639,4.825a2.539,2.539,0,0,1-1.006,1l-4.824,2.639a2.528,2.528,0,0,0,0,4.435l4.824,2.638a2.524,2.524,0,0,1,1.006,1l2.639,4.825a2.526,2.526,0,0,0,4.434,0l2.639-4.825a2.511,2.511,0,0,1,1.005-1l4.824-2.638A2.528,2.528,0,0,0,2251.08,1371.247Z" transform="translate(-2228.395 -1361.463)" fill="#fcfcfd"/>
</svg>
