<svg xmlns="http://www.w3.org/2000/svg" width="28" height="27.188" viewBox="0 0 28 27.188">
  <g id="pdf_logo" transform="translate(-43.918 -34.017)">
    <g id="Layer_86" data-name="Layer 86" transform="translate(43.918 34.017)">
      <path id="_64" data-name=" 64" d="M71.316,51.07c-2.091-2.172-7.8-1.287-9.17-1.126a24.317,24.317,0,0,1-3.861-5.068A23.391,23.391,0,0,0,59.572,38.2c0-2.011-.8-4.183-3.057-4.183a2.337,2.337,0,0,0-1.931,1.126c-.965,1.689-.563,5.068.965,8.526a58.1,58.1,0,0,1-3.941,9.17c-2.333.965-7.239,3.218-7.642,5.631a2.15,2.15,0,0,0,.644,2.011,3.089,3.089,0,0,0,2.011.724c2.976,0,5.872-4.1,7.883-7.561a53.409,53.409,0,0,1,7-1.85c3.137,2.735,5.872,3.137,7.32,3.137,1.931,0,2.654-.8,2.9-1.528A2.092,2.092,0,0,0,71.316,51.07Zm-2.011,1.367c-.08.563-.8,1.126-2.091.8a11.032,11.032,0,0,1-4.1-2.091,17.316,17.316,0,0,1,5.068-.08C68.822,51.231,69.466,51.633,69.305,52.437ZM55.872,35.867a.82.82,0,0,1,.644-.4c.724,0,.885.885.885,1.609a17.677,17.677,0,0,1-.965,4.987C55.228,38.843,55.47,36.591,55.872,35.867Zm-.161,15.6a44.91,44.91,0,0,0,1.85-4.5,20.506,20.506,0,0,0,2.574,3.3C60.135,50.346,57.642,50.829,55.711,51.472ZM50.965,54.69c-1.85,3.057-3.781,4.987-4.826,4.987a1.143,1.143,0,0,1-.483-.161.611.611,0,0,1-.241-.724C45.656,57.666,47.748,56.137,50.965,54.69Z" transform="translate(-43.918 -34.017)" fill="#fa0f00"/>
    </g>
  </g>
</svg>
