<svg xmlns="http://www.w3.org/2000/svg" width="28" height="25.201" viewBox="0 0 28 25.201">
  <path id="png_logo" d="M226,2109H212a7.008,7.008,0,0,0-7,7v11.2a6.93,6.93,0,0,0,.213,1.636,1.43,1.43,0,0,0,.062.2A6.992,6.992,0,0,0,212,2134.2h14a7.008,7.008,0,0,0,7-7V2116A7.006,7.006,0,0,0,226,2109Zm-14,2.8h14a4.205,4.205,0,0,1,4.2,4.2v6.42l-5.016-5.018a2.81,2.81,0,0,0-3.966,0l-6.417,6.416-.816-.817a2.811,2.811,0,0,0-3.966,0l-2.216,2.216V2116A4.2,4.2,0,0,1,212,2111.8Zm14,19.6H212a4.2,4.2,0,0,1-3.863-2.555l3.867-3.862,1.317,1.317a2.1,2.1,0,0,0,2.958,0l6.925-6.916,7,7v.82A4.205,4.205,0,0,1,226,2131.4Zm-14.7-14a2.1,2.1,0,1,1,2.1,2.1A2.1,2.1,0,0,1,211.3,2117.4Z" transform="translate(-205 -2109)" fill="#767dff"/>
</svg>
