<svg id="shopping-basket-Light" xmlns="http://www.w3.org/2000/svg" width="48" height="48" viewBox="0 0 48 48">
  <path id="shopping-basket-Light-2" data-name="shopping-basket-Light" d="M73.548,84.906v7.579a1.263,1.263,0,1,1-2.526,0V84.906a1.263,1.263,0,1,1,2.526,0Zm8.842-1.263a1.262,1.262,0,0,0-1.263,1.263v7.579a1.263,1.263,0,1,0,2.526,0V84.906a1.262,1.262,0,0,0-1.263-1.264ZM97.46,78.1,95.482,93.6a8.859,8.859,0,0,1-8.771,7.722H68.02a8.863,8.863,0,0,1-8.766-7.693L57.218,78.1a6.314,6.314,0,0,1,2.436-12.14H63.99L71.2,53.94a1.263,1.263,0,1,1,2.166,1.3L66.937,65.958h20.8L81.307,55.239a1.263,1.263,0,0,1,2.166-1.3l7.211,12.019h4.337A6.315,6.315,0,0,1,97.46,78.1ZM92.975,93.283,94.85,78.589H59.829l1.93,14.716A6.331,6.331,0,0,0,68.02,98.8H86.711A6.327,6.327,0,0,0,92.975,93.283Zm5.836-21.01a3.794,3.794,0,0,0-3.789-3.789H59.653a3.789,3.789,0,1,0,0,7.579H95.021A3.794,3.794,0,0,0,98.811,72.273Z" transform="translate(-53.338 -53.326)" fill="#fcfcfd"/>
</svg>
