<svg id="shopping-basket-Bold" xmlns="http://www.w3.org/2000/svg" width="48" height="47.985" viewBox="0 0 48 47.985">
  <path id="shopping-basket-Bold-2" data-name="shopping-basket-Bold" d="M64.262,73.854v7.2a2.4,2.4,0,0,1-4.8,0v-7.2a2.4,2.4,0,0,1,4.8,0Zm7.2-2.4a2.4,2.4,0,0,0-2.4,2.4v7.2a2.4,2.4,0,0,0,4.8,0v-7.2A2.4,2.4,0,0,0,71.462,71.454Zm15.429-3.308-1.8,14.121a9.618,9.618,0,0,1-9.522,8.381H57.811a9.623,9.623,0,0,1-9.517-8.35L46.438,68.149A7.173,7.173,0,0,1,49.863,54.66H53.3l6.5-10.832A2.4,2.4,0,0,1,63.92,46.3L58.9,54.66H74.423L69.4,46.3a2.4,2.4,0,0,1,4.115-2.469l6.5,10.832h3.441a7.173,7.173,0,0,1,3.43,13.487ZM47.462,61.857a2.4,2.4,0,0,0,2.4,2.4h33.6a2.4,2.4,0,1,0,0-4.8h-33.6a2.4,2.4,0,0,0-2.4,2.4Zm34.473,7.2H51.4l1.655,12.619a4.81,4.81,0,0,0,4.758,4.175H75.567a4.807,4.807,0,0,0,4.76-4.189Z" transform="translate(-42.662 -42.663)" fill="#fcfcfd"/>
</svg>
