<svg id="shopping-basket-Regular" xmlns="http://www.w3.org/2000/svg" width="48" height="48.001" viewBox="0 0 48 48.001">
  <path id="shopping-basket-Regular-2" data-name="shopping-basket-Regular" d="M68.919,79.379v7.385a1.846,1.846,0,1,1-3.692,0V79.379a1.846,1.846,0,0,1,3.692,0Zm8-1.846a1.846,1.846,0,0,0-1.846,1.846v7.385a1.846,1.846,0,1,0,3.692,0V79.379A1.846,1.846,0,0,0,76.919,77.533Zm15.254-4.4-1.887,14.8A9.25,9.25,0,0,1,81.13,96H62.918a9.254,9.254,0,0,1-9.152-8.031L51.822,73.14A6.752,6.752,0,0,1,54.765,60.3h3.878L65.49,48.891a1.846,1.846,0,1,1,3.166,1.9L62.949,60.3H81.044L75.336,50.79a1.846,1.846,0,1,1,3.166-1.9L85.349,60.3h3.878a6.752,6.752,0,0,1,2.946,12.834Zm-3.813.7H55.638l1.788,13.643A5.551,5.551,0,0,0,62.918,92.3H81.13a5.548,5.548,0,0,0,5.492-4.837ZM92.3,67.072a3.08,3.08,0,0,0-3.077-3.077H54.765a3.077,3.077,0,1,0,0,6.154H89.227A3.08,3.08,0,0,0,92.3,67.072Z" transform="translate(-47.995 -47.994)" fill="#fcfcfd"/>
</svg>
