<svg id="shopping-basket-Filled" xmlns="http://www.w3.org/2000/svg" width="48" height="48" viewBox="0 0 48 48">
  <path id="shopping-basket-Filled-2" data-name="shopping-basket-Filled" d="M85.267,69.471a1.241,1.241,0,0,0-.912-.408H48.979a1.241,1.241,0,0,0-.912.408,1.349,1.349,0,0,0-.288.96l1.7,12.912a8.43,8.43,0,0,0,8.328,7.32h17.76a8.419,8.419,0,0,0,8.352-7.344l1.632-12.912A1.323,1.323,0,0,0,85.267,69.471Zm-21,11.592a2.4,2.4,0,1,1-4.8,0v-4.8a2.4,2.4,0,1,1,4.8,0Zm9.6,0a2.4,2.4,0,1,1-4.8,0v-4.8a2.4,2.4,0,1,1,4.8,0Zm16.8-21a5.4,5.4,0,0,1-5.4,5.4h-37.2a5.4,5.4,0,1,1,0-10.8h5.241l6.5-10.835a2.4,2.4,0,0,1,4.116,2.47l-5.019,8.365H74.428L69.409,46.3a2.4,2.4,0,0,1,4.116-2.47l6.5,10.835h5.241A5.4,5.4,0,0,1,90.667,60.064Z" transform="translate(-42.667 -42.663)" fill="#fcfcfd" fill-rule="evenodd"/>
</svg>
