<svg xmlns="http://www.w3.org/2000/svg" width="28" height="28" viewBox="0 0 28 28">
  <g id="svg_logo" transform="translate(-17 -17.196)">
    <g id="base" transform="translate(17 31.196)">
      <path id="Path_43" data-name="Path 43" d="M17,300H45v9.894A4.035,4.035,0,0,1,40.894,314H21.106A4.035,4.035,0,0,1,17,309.894Z" transform="translate(-17 -300)" fill="#23262f"/>
    </g>
    <g id="Group_50" data-name="Group 50" transform="translate(17.01 17.196)">
      <g id="svgstar" transform="translate(0 0)">
        <g id="svgbar" transform="translate(0 9.897)">
          <path id="Path_44" data-name="Path 44" d="M58.952,255.816a2.218,2.218,0,1,0,0,3.137H75.6a2.218,2.218,0,1,0,0-3.137Z" transform="translate(-53.288 -253.286)" fill="#ffb13b"/>
          <path id="Path_45" data-name="Path 45" d="M41.08,225.353a4.07,4.07,0,0,1-2.217-.65H23.507a4.1,4.1,0,1,1,0-6.9H38.864a4.1,4.1,0,1,1,2.217,7.547Zm-.477-4.1.239.239a.338.338,0,0,0,.477,0,.338.338,0,0,0-.477-.478Zm-19.31-.338a.338.338,0,0,0-.239.576.338.338,0,0,0,.478,0l.239-.239-.239-.239A.337.337,0,0,0,21.292,220.918Z" transform="translate(-17.196 -217.157)" fill="#23262f"/>
        </g>
        <g id="Group_47" data-name="Group 47" transform="translate(2.896 2.896)">
          <g id="svgbar-2" data-name="svgbar">
            <path id="Path_46" data-name="Path 46" d="M118.18,115.963a2.218,2.218,0,1,0-2.218,2.219l11.774,11.78a2.218,2.218,0,1,0,2.218-2.219Z" transform="translate(-111.864 -111.864)" fill="#ffb13b"/>
            <path id="Path_47" data-name="Path 47" d="M93.826,97.934a4.106,4.106,0,0,1-4-3.227L78.962,83.843a4.1,4.1,0,1,1,4.877-4.879L94.7,89.828a4.1,4.1,0,0,1-.872,8.107ZM93.489,93.5v.338a.338.338,0,1,0,.338-.338Zm-13.655-14a.338.338,0,0,0,0,.676h.338v-.338A.338.338,0,0,0,79.834,79.5Z" transform="translate(-75.736 -75.736)" fill="#23262f"/>
          </g>
        </g>
        <g id="Group_48" data-name="Group 48" transform="translate(9.892)">
          <g id="svgbar-3" data-name="svgbar">
            <path id="Path_48" data-name="Path 48" d="M258.952,58.954a2.218,2.218,0,1,0-3.137,0V75.612a2.218,2.218,0,1,0,3.137,0Z" transform="translate(-253.286 -53.288)" fill="#ffb13b"/>
            <path id="Path_49" data-name="Path 49" d="M221.255,45.189a4.1,4.1,0,0,1-3.449-6.317V23.51a4.1,4.1,0,1,1,6.9,0v15.36a4.1,4.1,0,0,1-3.449,6.317Zm0-4.577-.239.239a.338.338,0,1,0,.478,0Zm0-19.655a.338.338,0,0,0-.239.576l.239.239.239-.239a.338.338,0,0,0,0-.478A.337.337,0,0,0,221.255,20.956Z" transform="translate(-217.157 -17.196)" fill="#23262f"/>
          </g>
        </g>
        <g id="Group_49" data-name="Group 49" transform="translate(2.896 2.896)">
          <g id="svgbar-4" data-name="svgbar">
            <path id="Path_50" data-name="Path 50" d="M129.954,118.182a2.219,2.219,0,1,0-2.218-2.219l-11.774,11.78a2.219,2.219,0,1,0,2.218,2.219Z" transform="translate(-111.864 -111.864)" fill="#ffb13b"/>
            <path id="Path_51" data-name="Path 51" d="M79.834,97.934a4.1,4.1,0,0,1-.872-8.107l10.86-10.864A4.1,4.1,0,1,1,94.7,83.843L83.839,94.707A4.106,4.106,0,0,1,79.834,97.934Zm0-4.438a.338.338,0,1,0,.338.338V93.5ZM93.489,80.174h.338a.338.338,0,1,0-.338-.338Z" transform="translate(-75.736 -75.736)" fill="#23262f"/>
          </g>
        </g>
      </g>
    </g>
    <g id="Group_54" data-name="Group 54" transform="translate(18.888 19.075)">
      <g id="svgstar-2" data-name="svgstar" transform="translate(0 0)">
        <g id="svgbar-5" data-name="svgbar" transform="translate(0 9.899)">
          <path id="Path_52" data-name="Path 52" d="M58.952,255.816a2.218,2.218,0,1,0,0,3.137H75.6a2.218,2.218,0,1,0,0-3.137Z" transform="translate(-55.166 -255.166)" fill="#ffb13b"/>
        </g>
        <g id="Group_51" data-name="Group 51" transform="translate(2.898 2.898)">
          <g id="svgbar-6" data-name="svgbar">
            <path id="Path_53" data-name="Path 53" d="M118.18,115.963a2.218,2.218,0,1,0-2.218,2.219l11.774,11.78a2.218,2.218,0,1,0,2.218-2.219Z" transform="translate(-113.744 -113.744)" fill="#ffb13b"/>
          </g>
        </g>
        <g id="Group_52" data-name="Group 52" transform="translate(9.894)">
          <g id="svgbar-7" data-name="svgbar">
            <path id="Path_54" data-name="Path 54" d="M258.952,58.954a2.218,2.218,0,1,0-3.137,0V75.612a2.218,2.218,0,1,0,3.137,0Z" transform="translate(-255.166 -55.166)" fill="#ffb13b"/>
          </g>
        </g>
        <g id="Group_53" data-name="Group 53" transform="translate(2.898 2.898)">
          <g id="svgbar-8" data-name="svgbar">
            <path id="Path_55" data-name="Path 55" d="M129.954,118.182a2.219,2.219,0,1,0-2.218-2.219l-11.774,11.78a2.219,2.219,0,1,0,2.218,2.219Z" transform="translate(-113.744 -113.744)" fill="#ffb13b"/>
          </g>
        </g>
      </g>
    </g>
    <g id="Group_55" data-name="Group 55" transform="translate(17 31.196)">
      <g id="base-2" data-name="base" transform="translate(0)">
        <path id="Path_56" data-name="Path 56" d="M17,300H45v9.894A4.035,4.035,0,0,1,40.894,314H21.106A4.035,4.035,0,0,1,17,309.894Z" transform="translate(-17 -300)" fill="#23262f"/>
      </g>
    </g>
    <g id="Group_56" data-name="Group 56" transform="translate(20.138 31.993)">
      <g id="SVG">
        <g id="S">
          <path id="Path_57" data-name="Path 57" d="M81.5,322.289a3.628,3.628,0,1,1,6.194-2.565H85.568A1.5,1.5,0,1,0,83,320.785h0a1.6,1.6,0,0,0,1.062.441h0a4.118,4.118,0,0,1,2.566,1.063h0a3.628,3.628,0,1,1-6.194,2.565h2.125a1.5,1.5,0,1,0,2.567-1.061h0a1.948,1.948,0,0,0-1.063-.44h0a4.465,4.465,0,0,1-2.565-1.063Z" transform="translate(-80.436 -316.096)" fill="#fcfcfd"/>
        </g>
        <g id="V" transform="translate(7.257)">
          <path id="Path_58" data-name="Path 58" d="M234.384,316.1l-2.566,12.387h-2.125L227.128,316.1h2.125l1.5,7.255,1.5-7.255Z" transform="translate(-227.128 -316.096)" fill="#fcfcfd"/>
        </g>
        <g id="G" transform="translate(14.513 0)">
          <path id="Path_59" data-name="Path 59" d="M377.441,321.23h3.628v3.628h0a3.628,3.628,0,1,1-7.257,0h0v-5.13h0a3.628,3.628,0,0,1,7.257,0h-2.125a1.5,1.5,0,1,0-3.005,0v5.13h0a1.5,1.5,0,0,0,3.005,0h0v-1.5h-1.5V321.23Z" transform="translate(-373.812 -316.1)" fill="#fcfcfd"/>
        </g>
      </g>
    </g>
  </g>
</svg>
