<svg xmlns="http://www.w3.org/2000/svg" width="28" height="19.044" viewBox="0 0 28 19.044">
  <g id="xd_logo" transform="translate(-462.961 -51.284)">
    <g id="Xd" transform="translate(462.961 51.284)">
      <path id="Path_41" data-name="Path 41" d="M477.976,60.247l-4.937,8.146,5.266,8.64a.283.283,0,0,1,.033.2c-.016.066-.082.016-.181.033h-3.769c-.263,0-.444-.016-.56-.181-.346-.691-.708-1.366-1.053-2.057-.346-.675-.724-1.366-1.119-2.074s-.79-1.415-1.185-2.139h-.033c-.346.708-.724,1.415-1.1,2.123s-.757,1.415-1.119,2.107c-.378.691-.757,1.4-1.136,2.074-.066.165-.2.181-.379.181h-3.621c-.066,0-.115.033-.115-.049a.229.229,0,0,1,.033-.181l5.118-8.393-4.987-8.443c-.049-.066-.066-.132-.033-.165a.191.191,0,0,1,.165-.066H467a.971.971,0,0,1,.23.033.467.467,0,0,1,.165.148c.313.708.675,1.415,1.053,2.123.395.708.773,1.4,1.185,2.09.395.691.757,1.382,1.1,2.09h.033c.346-.724.708-1.432,1.07-2.123s.741-1.382,1.119-2.074.741-1.4,1.1-2.074a.28.28,0,0,1,.1-.165.314.314,0,0,1,.214-.033h3.473a.152.152,0,0,1,.181.115c.016.016-.016.082-.049.115Z" transform="translate(-462.961 -58.566)" fill="#fa33ef"/>
      <path id="Path_42" data-name="Path 42" d="M565.225,70.328a8.182,8.182,0,0,1-3.538-.741,5.738,5.738,0,0,1-2.485-2.238A7.12,7.12,0,0,1,558.3,63.6a6.759,6.759,0,0,1,.905-3.472,6.834,6.834,0,0,1,2.617-2.551,8.418,8.418,0,0,1,4.164-.955,2.938,2.938,0,0,1,.346.016c.148.016.313.016.51.033v-5.2c0-.115.049-.181.165-.181h3.341a.148.148,0,0,1,.165.115V67.1c0,.3.016.625.033.987.033.346.049.675.066.955a.267.267,0,0,1-.165.263,12.566,12.566,0,0,1-2.682.79A14.518,14.518,0,0,1,565.225,70.328Zm1.613-3.291V59.8a4.207,4.207,0,0,0-.444-.082c-.181-.016-.362-.033-.543-.033a4.057,4.057,0,0,0-1.86.428,3.689,3.689,0,0,0-1.4,1.218,3.648,3.648,0,0,0-.543,2.09,4.584,4.584,0,0,0,.28,1.7,3.216,3.216,0,0,0,.74,1.168,2.844,2.844,0,0,0,1.119.658,4.308,4.308,0,0,0,1.366.214c.247,0,.477-.016.691-.033A1.439,1.439,0,0,0,566.838,67.037Z" transform="translate(-542.607 -51.284)" fill="#fa33ef"/>
    </g>
  </g>
</svg>
